<?xml version="1.0" encoding="UTF-8"?>
<svg width="752pt" height="752pt" version="1.1" viewBox="0 0 752 752" xmlns="http://www.w3.org/2000/svg">
 <path d="m584.27 300.3-34.859-34.867 15.055-5.0117h0.003906c4.0234-1.3477 6.7383-5.1172 6.7383-9.3633v-60.391c0-2.6172-1.0391-5.125-2.8906-6.9766-1.8516-1.8516-4.3594-2.8906-6.9766-2.8906h-60.391c-4.2461 0.003906-8.0117 2.7227-9.3555 6.75l-5.0234 15.055-34.863-34.867c-5.6328-5.6172-13.262-8.7695-21.215-8.7695-7.9531 0-15.582 3.1523-21.211 8.7695l-72.172 72.18c-5.625 5.6289-8.7812 13.258-8.7812 21.215 0 7.9531 3.1562 15.586 8.7812 21.211l39.18 39.18-163.31 163.29c-5.8633-1.918-12.137-2.2109-18.152-0.84766-6.0156 1.3594-11.551 4.3281-16.016 8.5859-5.6953 5.7227-9.125 13.32-9.6445 21.379-0.52344 8.0586 1.8945 16.035 6.8047 22.445l-12.641 8.4141v0.003906c-2.7422 1.8281-4.3906 4.9102-4.3867 8.207v30.199c0 2.6172 1.0391 5.1289 2.8867 6.9766 1.8516 1.8516 4.3594 2.8906 6.9766 2.8906h30.203c3.2969 0 6.3789-1.6445 8.207-4.3906l8.4141-12.641 0.003907 0.003906c7.6016 5.8633 17.371 8.1562 26.789 6.2812s17.566-7.7305 22.344-16.062c4.7812-8.3281 5.7227-18.32 2.5859-27.395l163.14-163.14 39.18 39.18c5.6289 5.6211 13.258 8.7812 21.211 8.7812 7.957 0 15.586-3.1602 21.215-8.7812l72.172-72.18v-0.003906c5.6172-5.625 8.7734-13.254 8.7734-21.207s-3.1562-15.578-8.7734-21.207zm-76.207-99.766h43.41v43.41l-17.66 5.918-31.641-31.668zm59.652 111.11h-26.512-0.23828c-1.4414-4.2852-3.8398-8.1797-7.0156-11.395l-82.242-82.199c-3.2188-3.1719-7.1133-5.5742-11.398-7.0117 0.003906-0.082031 0.003906-0.16797 0-0.25v-26.5zm-84.09 38.98-82.246-82.246c-4-4.0117-4-10.5 0-14.512l21.852-21.914c4.0156-4 10.508-4 14.523 0l82.297 82.297c3.9961 4.0117 3.9961 10.5 0 14.512l-21.906 21.863c-4.0156 3.9922-10.504 3.9922-14.523 0zm-63-166.34v26.508c0.015625 0.085938 0.035156 0.16797 0.0625 0.25-4.2852 1.4414-8.1875 3.8398-11.406 7.0117l-21.855 21.863c-3.1719 3.2148-5.5703 7.1094-7.0156 11.387-0.078125 0-0.15625-0.050781-0.23828-0.050781l-26.508 0.003906zm-226.9 389.05h-15.047v-15.047l11.141-7.4297 11.328 11.336zm51.789-14.078v-0.003906c-5.3633 5.3477-14.039 5.3477-19.398 0l-33.348-33.359v0.003906c-5.3555-5.3555-5.3555-14.043 0-19.398 5.3555-5.3555 14.039-5.3555 19.398 0l33.348 33.348c5.3477 5.3633 5.3477 14.043 0 19.406zm10.43-36.879-13.133-13.176-13.184-13.141 160.61-160.59 13.16 13.152 13.152 13.152zm181.54-167.56-83.805-83.805h26.512 0.23828l-0.003906-0.003906c1.4414 4.2852 3.8398 8.1797 7.0156 11.395l82.246 82.246c3.2148 3.1719 7.1133 5.5703 11.395 7.0156-0.023437 0.082032-0.039063 0.16406-0.050781 0.24609v26.5zm63.273 43.539-0.003906-26.516v-0.24609c4.2852-1.4375 8.1797-3.8398 11.395-7.0117l21.855-21.863v-0.003906c3.1719-3.2109 5.5703-7.1055 7.0156-11.383h0.23828 26.512z" fill="#fff"/>
</svg>
